<svg xmlns="http://www.w3.org/2000/svg"
 xmlns:xlink="http://www.w3.org/1999/xlink"
 width="153px" height="153px"  viewBox="0 0 153 153">
<path fill-rule="evenodd"  fill="#130e27"
 d="M76.000244,1.0003662 C34.581482,1.0003662 1.0001831,34.579285 1.0001831,76.00043 C1.0001831,117.42139 34.581482,151.0003 76.000244,151.0003 C117.418945,151.0003 151.00037,117.42139 151.00037,76.00043 C151.00037,34.579285 117.418945,1.0003662 76.000244,1.0003662 ZM82.25,138.18555 C82.25,138.18555 82.25,132.25037 82.25,132.25037 C82.25,128.79645 79.45441,126.00037 76.000244,126.00037 C72.54553,126.00037 69.74994,128.79645 69.74994,132.25037 C69.74994,132.25037 69.74994,138.18555 69.74994,138.18555 C40.227783,135.25385 16.747253,111.77637 13.817444,82.25037 C13.817444,82.25037 19.750061,82.25037 19.750061,82.25037 C23.204712,82.25037 26.000366,79.454346 26.000366,76.00043 C26.000366,72.54535 23.204712,69.75043 19.750061,69.75043 C19.750061,69.75043 13.817444,69.75043 13.817444,69.75043 C16.747253,40.224487 40.227783,16.746826 69.74994,13.8151245 C69.74994,13.8151245 69.74994,19.750488 69.74994,19.750488 C69.74994,23.201477 72.54553,26.000427 76.000244,26.000427 C79.45441,26.000427 82.25,23.201477 82.25,19.750488 C82.25,19.750488 82.25,13.8151245 82.25,13.8151245 C111.772705,16.746826 135.2533,40.224487 138.1825,69.75043 C138.1825,69.75043 132.24988,69.75043 132.24988,69.75043 C128.79565,69.75043 126.00012,72.54535 126.00012,76.00043 C126.00012,79.454346 128.79565,82.25037 132.24988,82.25037 C132.24988,82.25037 138.1825,82.25037 138.1825,82.25037 C135.2533,111.77637 111.772705,135.25385 82.25,138.18555 ZM62.74341,89.25769 C62.74341,89.25769 71.581604,115.77118 71.581604,115.77118 C71.581604,115.77118 106.93872,45.05536 106.93872,45.05536 C106.93872,45.05536 36.229736,80.41321 36.229736,80.41321 C36.229736,80.41321 62.74341,89.25769 62.74341,89.25769 ZM72.740906,99.4798 C72.740906,99.4798 68.66931,87.27985 68.66931,87.27985 C68.66931,87.27985 67.68689,84.31372 67.68689,84.31372 C67.68689,84.31372 64.72058,83.32428 64.72058,83.32428 C64.72058,83.32428 52.514038,79.25964 52.514038,79.25964 C52.514038,79.25964 92.96216,59.03247 92.96216,59.03247 C92.96216,59.03247 72.740906,99.4798 72.740906,99.4798 Z"/>
</svg>