<svg xmlns="http://www.w3.org/2000/svg"
 xmlns:xlink="http://www.w3.org/1999/xlink"
 width="174px" height="150px"  viewBox="0 0 174 150">
<path fill-rule="evenodd"  fill="#130e27"
 d="M154.84984,18.889038 C137.34746,1.6782227 108.9807,1.6782227 91.47833,18.889038 C89.787674,20.552063 88.314255,22.338623 86.94754,24.178223 C85.586975,22.338623 84.1069,20.552063 82.4229,18.889038 C64.92052,1.6782227 36.54712,1.6782227 19.051384,18.889038 C1.5484314,36.10608 1.5484314,64.01129 19.051384,81.22815 C19.051384,81.22815 86.94754,148.02466 86.94754,148.02466 C86.94754,148.02466 154.84984,81.22815 154.84984,81.22815 C172.34558,64.01129 172.34558,36.10608 154.84984,18.889038 ZM145.79506,72.32764 C142.57211,75.497375 86.94754,130.216 86.94754,130.216 C86.94754,130.216 31.329102,75.497375 28.099518,72.32764 C15.603424,60.028503 15.603424,40.10138 28.099518,27.79596 C40.608902,15.503174 60.872025,15.503174 73.36755,27.79596 C76.35989,30.732666 86.94754,41.153687 86.94754,41.153687 C86.94754,41.153687 97.541336,30.732666 100.52646,27.79596 C113.02919,15.503174 133.29897,15.503174 145.79506,27.79596 C158.29114,40.10138 158.29114,60.028503 145.79506,72.32764 ZM120.72342,32.59143 C120.72342,32.59143 120.72342,39.244873 120.72342,39.244873 C128.19376,39.244873 134.25012,45.202454 134.25012,52.5506 C134.25012,56.226807 132.73785,59.553955 130.28775,61.95874 C130.28775,61.95874 135.06902,66.66168 135.06902,66.66168 C138.74142,63.049377 141.01315,58.06018 141.01315,52.5506 C141.01315,41.531433 131.92554,32.59143 120.72342,32.59143 Z"/>
</svg>