<svg xmlns="http://www.w3.org/2000/svg"
 xmlns:xlink="http://www.w3.org/1999/xlink"
 width="120px" height="157px"  viewBox="0 0 120 157">
<path fill-rule="evenodd"  fill="#130e27"
 d="M60.000122,1.0001831 C27.966614,1.0001831 1.999939,27.023438 1.999939,59.125 C1.999939,65.93097 3.2270508,72.43298 5.373413,78.49994 C5.373413,78.49994 21.33368,110.79175 21.33368,110.79175 C23.051697,113.630066 25.084106,116.20325 27.841003,116.935 C27.834656,117.04266 27.777954,117.13617 27.777954,117.24994 C27.777954,117.24994 27.777954,123.70831 27.777954,123.70831 C27.777954,127.27844 30.660522,130.16656 34.222168,130.16656 C34.222168,130.16656 34.222168,136.62494 34.222168,136.62494 C34.222168,140.19507 37.104736,143.08331 40.66693,143.08331 C40.66693,143.08331 40.66693,149.54156 40.66693,149.54156 C40.66693,153.1117 43.54956,155.99994 47.111145,155.99994 C47.111145,155.99994 72.8891,155.99994 72.8891,155.99994 C76.450745,155.99994 79.333374,153.1117 79.333374,149.54156 C79.333374,149.54156 79.333374,143.08331 79.333374,143.08331 C82.89557,143.08331 85.778076,140.19507 85.778076,136.62494 C85.778076,136.62494 85.778076,130.16656 85.778076,130.16656 C89.33978,130.16656 92.22235,127.27844 92.22235,123.70831 C92.22235,123.70831 92.22235,117.24994 92.22235,117.24994 C92.22235,117.12488 92.15924,117.01721 92.147095,116.89734 C94.96661,116.08948 97.31964,113.49701 98.666565,110.79175 C98.666565,110.79175 114.62689,78.49994 114.62689,78.49994 C116.77319,72.43298 118.00037,65.93097 118.00037,59.125 C118.00037,27.023438 92.03369,1.0001831 60.000122,1.0001831 ZM72.8891,149.54156 C72.8891,149.54156 47.111145,149.54156 47.111145,149.54156 C47.111145,149.54156 47.111145,143.08331 47.111145,143.08331 C47.111145,143.08331 72.8891,143.08331 72.8891,143.08331 C72.8891,143.08331 72.8891,149.54156 72.8891,149.54156 ZM79.333374,136.62494 C79.333374,136.62494 72.8891,136.62494 72.8891,136.62494 C72.8891,136.62494 47.111145,136.62494 47.111145,136.62494 C47.111145,136.62494 40.66693,136.62494 40.66693,136.62494 C40.66693,136.62494 40.66693,130.16656 40.66693,130.16656 C40.66693,130.16656 79.333374,130.16656 79.333374,130.16656 C79.333374,130.16656 79.333374,136.62494 79.333374,136.62494 ZM85.778076,123.70831 C85.778076,123.70831 79.333374,123.70831 79.333374,123.70831 C79.333374,123.70831 40.66693,123.70831 40.66693,123.70831 C40.66693,123.70831 34.222168,123.70831 34.222168,123.70831 C34.222168,123.70831 34.222168,117.24994 34.222168,117.24994 C34.222168,117.24994 85.778076,117.24994 85.778076,117.24994 C85.778076,117.24994 85.778076,123.70831 85.778076,123.70831 ZM100.71222,78.49994 C100.71222,78.49994 87.79193,104.33331 87.79193,104.33331 C87.79193,104.33331 32.34729,104.33331 32.34729,104.33331 C32.34729,104.33331 19.288086,78.49994 19.288086,78.49994 C16.499878,72.62189 14.888977,66.06903 14.888977,59.125 C14.888977,34.149353 35.084656,13.916748 60.000122,13.916748 C84.91565,13.916748 105.11133,34.149353 105.11133,59.125 C105.11133,66.06903 103.49994,72.62189 100.71222,78.49994 ZM60.000122,20.375 C60.000122,20.375 60.000122,26.833374 60.000122,26.833374 C77.79773,26.833374 92.22235,41.28961 92.22235,59.125 C92.22235,59.125 98.666565,59.125 98.666565,59.125 C98.666565,37.725586 81.354065,20.375 60.000122,20.375 Z"/>
</svg>