<svg xmlns="http://www.w3.org/2000/svg"
 xmlns:xlink="http://www.w3.org/1999/xlink"
 width="142px" height="144px"  viewBox="0 0 142 144">
<path fill-rule="evenodd"  fill="#130e27"
 d="M85.630035,72.48859 C85.630035,72.48859 96.67172,61.447327 96.67172,61.447327 C106.91019,65.45471 118.98328,63.354065 127.25421,55.08264 C127.25421,55.08264 131.28918,51.047424 131.28918,51.047424 C140.20703,42.129333 140.20703,27.670837 131.28918,18.759033 C131.28918,18.759033 127.25421,22.79425 127.25421,22.79425 C127.25421,22.79425 111.11325,38.935608 111.11325,38.935608 C108.8833,41.17096 105.27176,41.17096 103.0423,38.935608 C100.80719,36.70575 100.80719,33.09442 103.0423,30.864502 C103.0423,30.864502 119.18323,14.723938 119.18323,14.723938 C119.18323,14.723938 123.21918,10.687927 123.21918,10.687927 C114.30652,1.7706909 99.84854,1.7706909 90.930725,10.687927 C90.930725,10.687927 86.89526,14.723938 86.89526,14.723938 C78.62433,22.995422 76.52298,35.067627 80.53076,45.305786 C80.53076,45.305786 65.4541,60.383118 65.4541,60.383118 C65.4541,60.383118 11.891113,6.819763 11.891113,6.819763 C11.891113,6.819763 1.0001221,3.9997559 1.0001221,3.9997559 C1.0001221,3.9997559 3.82016,14.890991 3.82016,14.890991 C3.82016,14.890991 57.38315,68.45337 57.38315,68.45337 C57.38315,68.45337 6.183441,119.652954 6.183441,119.652954 C1.7249756,124.11206 1.7249756,131.33539 6.183441,135.7945 C10.642853,140.25262 17.865936,140.25262 22.32483,135.7945 C22.32483,135.7945 69.489075,88.630005 69.489075,88.630005 C69.489075,88.630005 118.49219,137.63379 118.49219,137.63379 C122.9516,142.09271 130.17468,142.09271 134.6341,137.63379 C139.09253,133.17468 139.09253,125.951355 134.6341,121.49225 C134.6341,121.49225 85.630035,72.48859 85.630035,72.48859 ZM90.930725,18.759033 C90.930725,18.759033 94.971344,14.723938 94.971344,14.723938 C100.23306,9.456665 108.04767,8.403198 114.40692,11.4296875 C114.40692,11.4296875 99.00726,26.829285 99.00726,26.829285 C94.54791,31.288452 94.54791,38.517212 99.00726,42.970825 C103.46008,47.42981 110.68982,47.42981 115.14819,42.970825 C115.14819,42.970825 130.54791,27.570251 130.54791,27.570251 C133.57446,33.930603 132.52106,41.74408 127.25421,47.012207 C127.25421,47.012207 123.21918,51.047424 123.21918,51.047424 C114.30652,59.960144 99.84854,59.960144 90.930725,51.047424 C82.01849,42.129333 82.01849,27.670837 90.930725,18.759033 ZM83.26727,50.639587 C84.30945,52.20691 85.51315,53.69409 86.89526,55.08264 C88.28342,56.46472 89.771576,57.66913 91.33771,58.710876 C91.33771,58.710876 77.56003,72.48859 77.56003,72.48859 C77.56003,72.48859 69.489075,64.418335 69.489075,64.418335 C69.489075,64.418335 83.26727,50.639587 83.26727,50.639587 ZM18.289368,131.75842 C16.060394,133.98834 12.448364,133.98834 10.218903,131.75842 C7.989441,129.52936 7.989441,125.91803 10.218903,123.688965 C10.218903,123.688965 18.289368,115.61786 18.289368,115.61786 C18.289368,115.61786 26.36029,123.688965 26.36029,123.688965 C26.36029,123.688965 18.289368,131.75842 18.289368,131.75842 ZM22.32483,111.58264 C22.32483,111.58264 61.41812,72.48859 61.41812,72.48859 C61.41812,72.48859 69.489075,80.55969 69.489075,80.55969 C69.489075,80.55969 30.395355,119.652954 30.395355,119.652954 C30.395355,119.652954 22.32483,111.58264 22.32483,111.58264 ZM74.09827,85.16882 C74.09827,85.16882 82.16919,77.09851 82.16919,77.09851 C82.16919,77.09851 118.49219,113.42114 118.49219,113.42114 C118.49219,113.42114 110.42172,121.49225 110.42172,121.49225 C110.42172,121.49225 74.09827,85.16882 74.09827,85.16882 ZM130.59814,133.59857 C128.36865,135.82764 124.75708,135.82764 122.52814,133.59857 C122.52814,133.59857 114.457214,125.527466 114.457214,125.527466 C114.457214,125.527466 122.52814,117.45715 122.52814,117.45715 C122.52814,117.45715 130.59814,125.527466 130.59814,125.527466 C132.82806,127.757324 132.82806,131.36865 130.59814,133.59857 Z"/>
</svg>